# xmcd
#
# Track frame offsets:
#	150
#	13668
#	30841
#	50022
#	66329
#	78473
#	100041
#	118643
#	132261
#	146285
#
# Disc length: 2205 seconds
#
# Revision: 1
# Processed by: cddbd v1.5.2PL0 Copyright (c) Steve Scherf et al.
# Submitted via: audiograbber 1.83.01
#
DISCID=7d089b0a
DTITLE=Markus Zosel - Markus Zosel
DYEAR=2008
DGENRE=Crossover
TTITLE0=Maybe it's you
TTITLE1=Turning Thirty
TTITLE2=I wanna write a love song
TTITLE3=Mr. Nice Guy's leaving
TTITLE4=Midnight snow
TTITLE5=1992
TTITLE6=Honest songs
TTITLE7=Vivian's dream
TTITLE8=Looking back and goin' along
TTITLE9=Hold me close
EXTD=
EXTT0=
EXTT1=
EXTT2=
EXTT3=
EXTT4=
EXTT5=
EXTT6=
EXTT7=
EXTT8=
EXTT9=
PLAYORDER=
